<mxfile host="app.diagrams.net" modified="2024-04-09T14:13:26.242Z" agent="Mozilla/5.0 (X11; Linux x86_64) AppleWebKit/537.36 (KHTML, like Gecko) Chrome/123.0.0.0 Safari/537.36" etag="PYR9ZR5OYUr6vuj20Jbf" version="24.2.3" type="device">
  <diagram name="Page-1" id="10a91c8b-09ff-31b1-d368-03940ed4cc9e">
    <mxGraphModel dx="-766" dy="786" grid="1" gridSize="10" guides="1" tooltips="1" connect="1" arrows="1" fold="1" page="1" pageScale="1" pageWidth="1100" pageHeight="850" background="none" math="0" shadow="0">
      <root>
        <mxCell id="0" />
        <mxCell id="1" parent="0" />
        <mxCell id="LJCdJQDtRav1pjc_Ptu5-112" value="" style="whiteSpace=wrap;html=1;rounded=1;shadow=1;labelBackgroundColor=none;strokeWidth=1;fontFamily=Verdana;fontSize=12;align=center;" parent="1" vertex="1">
          <mxGeometry x="2385" y="200" width="40" height="60" as="geometry" />
        </mxCell>
        <mxCell id="LJCdJQDtRav1pjc_Ptu5-113" value="" style="whiteSpace=wrap;html=1;rounded=1;shadow=1;labelBackgroundColor=none;strokeWidth=1;fontFamily=Verdana;fontSize=12;align=center;" parent="1" vertex="1">
          <mxGeometry x="2305" y="280" width="40" height="60" as="geometry" />
        </mxCell>
        <mxCell id="LJCdJQDtRav1pjc_Ptu5-114" value="" style="whiteSpace=wrap;html=1;rounded=1;shadow=1;labelBackgroundColor=none;strokeWidth=1;fontFamily=Verdana;fontSize=12;align=center;" parent="1" vertex="1">
          <mxGeometry x="2355" y="280" width="40" height="60" as="geometry" />
        </mxCell>
        <mxCell id="LJCdJQDtRav1pjc_Ptu5-115" value="" style="rounded=0;html=1;labelBackgroundColor=none;startArrow=none;startFill=0;startSize=5;endArrow=none;endFill=0;endSize=5;jettySize=auto;orthogonalLoop=1;strokeWidth=1;fontFamily=Verdana;fontSize=12;exitX=0.5;exitY=1;exitDx=0;exitDy=0;entryX=0.5;entryY=0;entryDx=0;entryDy=0;" parent="1" source="LJCdJQDtRav1pjc_Ptu5-112" target="LJCdJQDtRav1pjc_Ptu5-114" edge="1">
          <mxGeometry x="-0.3002" y="13" relative="1" as="geometry">
            <mxPoint as="offset" />
          </mxGeometry>
        </mxCell>
        <mxCell id="LJCdJQDtRav1pjc_Ptu5-116" value="&lt;br&gt;" style="rounded=0;html=1;labelBackgroundColor=none;startArrow=none;startFill=0;startSize=5;endArrow=none;endFill=0;endSize=5;jettySize=auto;orthogonalLoop=1;strokeWidth=1;fontFamily=Verdana;fontSize=12;exitX=0.5;exitY=1;exitDx=0;exitDy=0;entryX=0.5;entryY=0;entryDx=0;entryDy=0;" parent="1" source="LJCdJQDtRav1pjc_Ptu5-112" target="LJCdJQDtRav1pjc_Ptu5-113" edge="1">
          <mxGeometry x="-0.359" y="-11" relative="1" as="geometry">
            <mxPoint as="offset" />
          </mxGeometry>
        </mxCell>
        <mxCell id="LJCdJQDtRav1pjc_Ptu5-117" value="" style="whiteSpace=wrap;html=1;rounded=1;shadow=1;labelBackgroundColor=none;strokeWidth=1;fontFamily=Verdana;fontSize=12;align=center;" parent="1" vertex="1">
          <mxGeometry x="2405" y="280" width="40" height="60" as="geometry" />
        </mxCell>
        <mxCell id="LJCdJQDtRav1pjc_Ptu5-118" value="" style="whiteSpace=wrap;html=1;rounded=1;shadow=1;labelBackgroundColor=none;strokeWidth=1;fontFamily=Verdana;fontSize=12;align=center;" parent="1" vertex="1">
          <mxGeometry x="2455" y="280" width="40" height="60" as="geometry" />
        </mxCell>
        <mxCell id="LJCdJQDtRav1pjc_Ptu5-119" value="" style="rounded=0;html=1;labelBackgroundColor=none;startArrow=none;startFill=0;startSize=5;endArrow=none;endFill=0;endSize=5;jettySize=auto;orthogonalLoop=1;strokeWidth=1;fontFamily=Verdana;fontSize=12;exitX=0.5;exitY=1;exitDx=0;exitDy=0;entryX=0.5;entryY=0;entryDx=0;entryDy=0;" parent="1" source="LJCdJQDtRav1pjc_Ptu5-112" target="LJCdJQDtRav1pjc_Ptu5-117" edge="1">
          <mxGeometry x="-0.3002" y="13" relative="1" as="geometry">
            <mxPoint as="offset" />
            <mxPoint x="2410" y="270" as="sourcePoint" />
            <mxPoint x="2500" y="290" as="targetPoint" />
          </mxGeometry>
        </mxCell>
        <mxCell id="LJCdJQDtRav1pjc_Ptu5-120" value="" style="rounded=0;html=1;labelBackgroundColor=none;startArrow=none;startFill=0;startSize=5;endArrow=none;endFill=0;endSize=5;jettySize=auto;orthogonalLoop=1;strokeWidth=1;fontFamily=Verdana;fontSize=12;exitX=0.5;exitY=1;exitDx=0;exitDy=0;entryX=0.5;entryY=0;entryDx=0;entryDy=0;" parent="1" source="LJCdJQDtRav1pjc_Ptu5-112" target="LJCdJQDtRav1pjc_Ptu5-118" edge="1">
          <mxGeometry x="-0.3002" y="13" relative="1" as="geometry">
            <mxPoint as="offset" />
            <mxPoint x="2410" y="270" as="sourcePoint" />
            <mxPoint x="2550" y="290" as="targetPoint" />
          </mxGeometry>
        </mxCell>
        <mxCell id="LJCdJQDtRav1pjc_Ptu5-130" value="" style="whiteSpace=wrap;html=1;rounded=1;shadow=1;labelBackgroundColor=none;strokeWidth=1;fontFamily=Verdana;fontSize=12;align=center;" parent="1" vertex="1">
          <mxGeometry x="2990" y="200" width="40" height="60" as="geometry" />
        </mxCell>
        <mxCell id="LJCdJQDtRav1pjc_Ptu5-131" value="" style="whiteSpace=wrap;html=1;rounded=1;shadow=1;labelBackgroundColor=none;strokeWidth=1;fontFamily=Verdana;fontSize=12;align=center;" parent="1" vertex="1">
          <mxGeometry x="2915" y="280" width="40" height="60" as="geometry" />
        </mxCell>
        <mxCell id="LJCdJQDtRav1pjc_Ptu5-132" value="" style="whiteSpace=wrap;html=1;rounded=1;shadow=1;labelBackgroundColor=none;strokeWidth=1;fontFamily=Verdana;fontSize=12;align=center;" parent="1" vertex="1">
          <mxGeometry x="2965" y="280" width="40" height="60" as="geometry" />
        </mxCell>
        <mxCell id="LJCdJQDtRav1pjc_Ptu5-133" value="" style="rounded=0;html=1;labelBackgroundColor=none;startArrow=none;startFill=0;startSize=5;endArrow=none;endFill=0;endSize=5;jettySize=auto;orthogonalLoop=1;strokeWidth=1;fontFamily=Verdana;fontSize=12;exitX=0.5;exitY=1;exitDx=0;exitDy=0;entryX=0.5;entryY=0;entryDx=0;entryDy=0;" parent="1" source="LJCdJQDtRav1pjc_Ptu5-130" target="LJCdJQDtRav1pjc_Ptu5-132" edge="1">
          <mxGeometry x="-0.3002" y="13" relative="1" as="geometry">
            <mxPoint as="offset" />
          </mxGeometry>
        </mxCell>
        <mxCell id="LJCdJQDtRav1pjc_Ptu5-134" value="&lt;br&gt;" style="rounded=0;html=1;labelBackgroundColor=none;startArrow=none;startFill=0;startSize=5;endArrow=none;endFill=0;endSize=5;jettySize=auto;orthogonalLoop=1;strokeWidth=1;fontFamily=Verdana;fontSize=12;exitX=0.5;exitY=1;exitDx=0;exitDy=0;entryX=0.5;entryY=0;entryDx=0;entryDy=0;" parent="1" source="LJCdJQDtRav1pjc_Ptu5-130" target="LJCdJQDtRav1pjc_Ptu5-131" edge="1">
          <mxGeometry x="-0.359" y="-11" relative="1" as="geometry">
            <mxPoint as="offset" />
          </mxGeometry>
        </mxCell>
        <mxCell id="LJCdJQDtRav1pjc_Ptu5-135" value="" style="whiteSpace=wrap;html=1;rounded=1;shadow=1;labelBackgroundColor=none;strokeWidth=1;fontFamily=Verdana;fontSize=12;align=center;" parent="1" vertex="1">
          <mxGeometry x="3015" y="280" width="40" height="60" as="geometry" />
        </mxCell>
        <mxCell id="LJCdJQDtRav1pjc_Ptu5-136" value="" style="whiteSpace=wrap;html=1;rounded=1;shadow=1;labelBackgroundColor=none;strokeWidth=1;fontFamily=Verdana;fontSize=12;align=center;" parent="1" vertex="1">
          <mxGeometry x="3065" y="280" width="40" height="60" as="geometry" />
        </mxCell>
        <mxCell id="LJCdJQDtRav1pjc_Ptu5-137" value="" style="rounded=0;html=1;labelBackgroundColor=none;startArrow=none;startFill=0;startSize=5;endArrow=none;endFill=0;endSize=5;jettySize=auto;orthogonalLoop=1;strokeWidth=1;fontFamily=Verdana;fontSize=12;exitX=0.5;exitY=1;exitDx=0;exitDy=0;entryX=0.5;entryY=0;entryDx=0;entryDy=0;" parent="1" source="LJCdJQDtRav1pjc_Ptu5-130" target="LJCdJQDtRav1pjc_Ptu5-135" edge="1">
          <mxGeometry x="-0.3002" y="13" relative="1" as="geometry">
            <mxPoint as="offset" />
            <mxPoint x="3020" y="270" as="sourcePoint" />
            <mxPoint x="3110" y="290" as="targetPoint" />
          </mxGeometry>
        </mxCell>
        <mxCell id="LJCdJQDtRav1pjc_Ptu5-138" value="" style="rounded=0;html=1;labelBackgroundColor=none;startArrow=none;startFill=0;startSize=5;endArrow=none;endFill=0;endSize=5;jettySize=auto;orthogonalLoop=1;strokeWidth=1;fontFamily=Verdana;fontSize=12;exitX=0.5;exitY=1;exitDx=0;exitDy=0;entryX=0.5;entryY=0;entryDx=0;entryDy=0;" parent="1" source="LJCdJQDtRav1pjc_Ptu5-130" target="LJCdJQDtRav1pjc_Ptu5-136" edge="1">
          <mxGeometry x="-0.3002" y="13" relative="1" as="geometry">
            <mxPoint as="offset" />
            <mxPoint x="3020" y="270" as="sourcePoint" />
            <mxPoint x="3160" y="290" as="targetPoint" />
          </mxGeometry>
        </mxCell>
        <mxCell id="LJCdJQDtRav1pjc_Ptu5-148" value="" style="whiteSpace=wrap;html=1;rounded=1;shadow=1;labelBackgroundColor=none;strokeWidth=1;fontFamily=Verdana;fontSize=12;align=center;" parent="1" vertex="1">
          <mxGeometry x="2730" y="40" width="40" height="57" as="geometry" />
        </mxCell>
        <mxCell id="LJCdJQDtRav1pjc_Ptu5-149" value="" style="whiteSpace=wrap;html=1;rounded=1;shadow=1;labelBackgroundColor=none;strokeWidth=1;fontFamily=Verdana;fontSize=12;align=center;" parent="1" vertex="1">
          <mxGeometry x="2335" y="120" width="40" height="60" as="geometry" />
        </mxCell>
        <mxCell id="LJCdJQDtRav1pjc_Ptu5-151" value="" style="rounded=0;html=1;labelBackgroundColor=none;startArrow=none;startFill=0;startSize=5;endArrow=none;endFill=0;endSize=5;jettySize=auto;orthogonalLoop=1;strokeWidth=1;fontFamily=Verdana;fontSize=12;exitX=0.5;exitY=1;exitDx=0;exitDy=0;entryX=0.5;entryY=0;entryDx=0;entryDy=0;" parent="1" source="LJCdJQDtRav1pjc_Ptu5-148" target="LJCdJQDtRav1pjc_Ptu5-164" edge="1">
          <mxGeometry x="-0.3002" y="13" relative="1" as="geometry">
            <mxPoint as="offset" />
            <mxPoint x="2675" y="100" as="sourcePoint" />
            <mxPoint x="2605" y="120" as="targetPoint" />
          </mxGeometry>
        </mxCell>
        <mxCell id="LJCdJQDtRav1pjc_Ptu5-152" value="&lt;br&gt;" style="rounded=0;html=1;labelBackgroundColor=none;startArrow=none;startFill=0;startSize=5;endArrow=none;endFill=0;endSize=5;jettySize=auto;orthogonalLoop=1;strokeWidth=1;fontFamily=Verdana;fontSize=12;exitX=0.5;exitY=1;exitDx=0;exitDy=0;entryX=0.5;entryY=0;entryDx=0;entryDy=0;" parent="1" source="LJCdJQDtRav1pjc_Ptu5-148" target="LJCdJQDtRav1pjc_Ptu5-149" edge="1">
          <mxGeometry x="-0.359" y="-11" relative="1" as="geometry">
            <mxPoint as="offset" />
          </mxGeometry>
        </mxCell>
        <mxCell id="LJCdJQDtRav1pjc_Ptu5-155" value="" style="rounded=0;html=1;labelBackgroundColor=none;startArrow=none;startFill=0;startSize=5;endArrow=none;endFill=0;endSize=5;jettySize=auto;orthogonalLoop=1;strokeWidth=1;fontFamily=Verdana;fontSize=12;exitX=0.5;exitY=1;exitDx=0;exitDy=0;entryX=0.5;entryY=0;entryDx=0;entryDy=0;" parent="1" source="LJCdJQDtRav1pjc_Ptu5-148" target="LJCdJQDtRav1pjc_Ptu5-183" edge="1">
          <mxGeometry x="-0.3002" y="13" relative="1" as="geometry">
            <mxPoint as="offset" />
            <mxPoint x="2675" y="100" as="sourcePoint" />
            <mxPoint x="2845" y="120" as="targetPoint" />
          </mxGeometry>
        </mxCell>
        <mxCell id="LJCdJQDtRav1pjc_Ptu5-156" value="" style="rounded=0;html=1;labelBackgroundColor=none;startArrow=none;startFill=0;startSize=5;endArrow=none;endFill=0;endSize=5;jettySize=auto;orthogonalLoop=1;strokeWidth=1;fontFamily=Verdana;fontSize=12;entryX=0.5;entryY=0;entryDx=0;entryDy=0;exitX=0.5;exitY=1;exitDx=0;exitDy=0;" parent="1" source="LJCdJQDtRav1pjc_Ptu5-148" edge="1">
          <mxGeometry x="-0.3002" y="13" relative="1" as="geometry">
            <mxPoint as="offset" />
            <mxPoint x="2670" y="100" as="sourcePoint" />
            <mxPoint x="3265" y="130" as="targetPoint" />
          </mxGeometry>
        </mxCell>
        <mxCell id="LJCdJQDtRav1pjc_Ptu5-157" value="" style="whiteSpace=wrap;html=1;rounded=1;shadow=1;labelBackgroundColor=none;strokeWidth=1;fontFamily=Verdana;fontSize=12;align=center;" parent="1" vertex="1">
          <mxGeometry x="2220" y="200" width="40" height="60" as="geometry" />
        </mxCell>
        <mxCell id="LJCdJQDtRav1pjc_Ptu5-158" value="" style="whiteSpace=wrap;html=1;rounded=1;shadow=1;labelBackgroundColor=none;strokeWidth=1;fontFamily=Verdana;fontSize=12;align=center;" parent="1" vertex="1">
          <mxGeometry x="2270" y="200" width="40" height="60" as="geometry" />
        </mxCell>
        <mxCell id="LJCdJQDtRav1pjc_Ptu5-159" value="&lt;br&gt;" style="rounded=0;html=1;labelBackgroundColor=none;startArrow=none;startFill=0;startSize=5;endArrow=none;endFill=0;endSize=5;jettySize=auto;orthogonalLoop=1;strokeWidth=1;fontFamily=Verdana;fontSize=12;exitX=0.5;exitY=1;exitDx=0;exitDy=0;entryX=0.5;entryY=0;entryDx=0;entryDy=0;" parent="1" source="LJCdJQDtRav1pjc_Ptu5-149" target="LJCdJQDtRav1pjc_Ptu5-157" edge="1">
          <mxGeometry x="-0.359" y="-11" relative="1" as="geometry">
            <mxPoint as="offset" />
            <mxPoint x="2475" y="180" as="sourcePoint" />
            <mxPoint x="2285" y="200" as="targetPoint" />
          </mxGeometry>
        </mxCell>
        <mxCell id="LJCdJQDtRav1pjc_Ptu5-160" value="&lt;br&gt;" style="rounded=0;html=1;labelBackgroundColor=none;startArrow=none;startFill=0;startSize=5;endArrow=none;endFill=0;endSize=5;jettySize=auto;orthogonalLoop=1;strokeWidth=1;fontFamily=Verdana;fontSize=12;exitX=0.5;exitY=1;exitDx=0;exitDy=0;entryX=0.5;entryY=0;entryDx=0;entryDy=0;" parent="1" source="LJCdJQDtRav1pjc_Ptu5-149" target="LJCdJQDtRav1pjc_Ptu5-158" edge="1">
          <mxGeometry x="-0.359" y="-11" relative="1" as="geometry">
            <mxPoint as="offset" />
            <mxPoint x="2488" y="189" as="sourcePoint" />
            <mxPoint x="2325" y="210" as="targetPoint" />
          </mxGeometry>
        </mxCell>
        <mxCell id="LJCdJQDtRav1pjc_Ptu5-162" value="&lt;br&gt;" style="rounded=0;html=1;labelBackgroundColor=none;startArrow=none;startFill=0;startSize=5;endArrow=none;endFill=0;endSize=5;jettySize=auto;orthogonalLoop=1;strokeWidth=1;fontFamily=Verdana;fontSize=12;exitX=0.5;exitY=1;exitDx=0;exitDy=0;entryX=0.5;entryY=0;entryDx=0;entryDy=0;" parent="1" source="LJCdJQDtRav1pjc_Ptu5-149" target="LJCdJQDtRav1pjc_Ptu5-112" edge="1">
          <mxGeometry x="-0.359" y="-11" relative="1" as="geometry">
            <mxPoint as="offset" />
            <mxPoint x="2485" y="190" as="sourcePoint" />
            <mxPoint x="2405" y="199.9999999999999" as="targetPoint" />
          </mxGeometry>
        </mxCell>
        <mxCell id="LJCdJQDtRav1pjc_Ptu5-163" value="" style="whiteSpace=wrap;html=1;rounded=1;shadow=1;labelBackgroundColor=none;strokeWidth=1;fontFamily=Verdana;fontSize=12;align=center;" parent="1" vertex="1">
          <mxGeometry x="2450" y="200" width="40" height="60" as="geometry" />
        </mxCell>
        <mxCell id="LJCdJQDtRav1pjc_Ptu5-164" value="" style="whiteSpace=wrap;html=1;rounded=1;shadow=1;labelBackgroundColor=none;strokeWidth=1;fontFamily=Verdana;fontSize=12;align=center;strokeColor=#FF8000;" parent="1" vertex="1">
          <mxGeometry x="2585" y="120" width="40" height="60" as="geometry" />
        </mxCell>
        <mxCell id="LJCdJQDtRav1pjc_Ptu5-165" value="" style="whiteSpace=wrap;html=1;rounded=1;shadow=1;labelBackgroundColor=none;strokeWidth=1;fontFamily=Verdana;fontSize=12;align=center;dashed=1;dashPattern=1 4;strokeColor=#CCCCCC;" parent="1" vertex="1">
          <mxGeometry x="2510" y="200" width="40" height="60" as="geometry" />
        </mxCell>
        <mxCell id="LJCdJQDtRav1pjc_Ptu5-166" value="" style="whiteSpace=wrap;html=1;rounded=1;shadow=1;labelBackgroundColor=none;strokeWidth=1;fontFamily=Verdana;fontSize=12;align=center;dashed=1;strokeColor=#80FF00;" parent="1" vertex="1">
          <mxGeometry x="2560" y="200" width="40" height="60" as="geometry" />
        </mxCell>
        <mxCell id="LJCdJQDtRav1pjc_Ptu5-167" value="" style="rounded=0;html=1;labelBackgroundColor=none;startArrow=none;startFill=0;startSize=5;endArrow=none;endFill=0;endSize=5;jettySize=auto;orthogonalLoop=1;strokeWidth=1;fontFamily=Verdana;fontSize=12;exitX=0.5;exitY=1;exitDx=0;exitDy=0;entryX=0.5;entryY=0;entryDx=0;entryDy=0;dashed=1;strokeColor=#80FF00;" parent="1" source="LJCdJQDtRav1pjc_Ptu5-164" target="LJCdJQDtRav1pjc_Ptu5-166" edge="1">
          <mxGeometry x="-0.3002" y="13" relative="1" as="geometry">
            <mxPoint as="offset" />
          </mxGeometry>
        </mxCell>
        <mxCell id="LJCdJQDtRav1pjc_Ptu5-168" value="&lt;br&gt;" style="rounded=0;html=1;labelBackgroundColor=none;startArrow=none;startFill=0;startSize=5;endArrow=none;endFill=0;endSize=5;jettySize=auto;orthogonalLoop=1;strokeWidth=1;fontFamily=Verdana;fontSize=12;exitX=0.5;exitY=1;exitDx=0;exitDy=0;entryX=0.5;entryY=0;entryDx=0;entryDy=0;dashed=1;dashPattern=1 4;" parent="1" source="LJCdJQDtRav1pjc_Ptu5-164" target="LJCdJQDtRav1pjc_Ptu5-165" edge="1">
          <mxGeometry x="-0.359" y="-11" relative="1" as="geometry">
            <mxPoint as="offset" />
          </mxGeometry>
        </mxCell>
        <mxCell id="LJCdJQDtRav1pjc_Ptu5-169" value="" style="whiteSpace=wrap;html=1;rounded=1;shadow=1;labelBackgroundColor=none;strokeWidth=1;fontFamily=Verdana;fontSize=12;align=center;dashed=1;dashPattern=1 4;strokeColor=#CCCCCC;" parent="1" vertex="1">
          <mxGeometry x="2610" y="200" width="40" height="60" as="geometry" />
        </mxCell>
        <mxCell id="LJCdJQDtRav1pjc_Ptu5-170" value="" style="whiteSpace=wrap;html=1;rounded=1;shadow=1;labelBackgroundColor=none;strokeWidth=1;fontFamily=Verdana;fontSize=12;align=center;dashed=1;dashPattern=1 4;strokeColor=#CCCCCC;" parent="1" vertex="1">
          <mxGeometry x="2660" y="200" width="40" height="60" as="geometry" />
        </mxCell>
        <mxCell id="LJCdJQDtRav1pjc_Ptu5-171" value="" style="rounded=0;html=1;labelBackgroundColor=none;startArrow=none;startFill=0;startSize=5;endArrow=none;endFill=0;endSize=5;jettySize=auto;orthogonalLoop=1;strokeWidth=1;fontFamily=Verdana;fontSize=12;exitX=0.5;exitY=1;exitDx=0;exitDy=0;entryX=0.5;entryY=0;entryDx=0;entryDy=0;dashed=1;dashPattern=1 4;" parent="1" source="LJCdJQDtRav1pjc_Ptu5-164" target="LJCdJQDtRav1pjc_Ptu5-169" edge="1">
          <mxGeometry x="-0.3002" y="13" relative="1" as="geometry">
            <mxPoint as="offset" />
            <mxPoint x="2620" y="190" as="sourcePoint" />
            <mxPoint x="2710" y="210" as="targetPoint" />
          </mxGeometry>
        </mxCell>
        <mxCell id="LJCdJQDtRav1pjc_Ptu5-172" value="" style="rounded=0;html=1;labelBackgroundColor=none;startArrow=none;startFill=0;startSize=5;endArrow=none;endFill=0;endSize=5;jettySize=auto;orthogonalLoop=1;strokeWidth=1;fontFamily=Verdana;fontSize=12;exitX=0.5;exitY=1;exitDx=0;exitDy=0;entryX=0.5;entryY=0;entryDx=0;entryDy=0;dashed=1;dashPattern=1 4;" parent="1" source="LJCdJQDtRav1pjc_Ptu5-164" target="LJCdJQDtRav1pjc_Ptu5-170" edge="1">
          <mxGeometry x="-0.3002" y="13" relative="1" as="geometry">
            <mxPoint as="offset" />
            <mxPoint x="2620" y="190" as="sourcePoint" />
            <mxPoint x="2760" y="210" as="targetPoint" />
          </mxGeometry>
        </mxCell>
        <mxCell id="LJCdJQDtRav1pjc_Ptu5-173" value="&lt;br&gt;" style="rounded=0;html=1;labelBackgroundColor=none;startArrow=none;startFill=0;startSize=5;endArrow=none;endFill=0;endSize=5;jettySize=auto;orthogonalLoop=1;strokeWidth=1;fontFamily=Verdana;fontSize=12;exitX=0.5;exitY=1;exitDx=0;exitDy=0;entryX=0.5;entryY=0;entryDx=0;entryDy=0;" parent="1" source="LJCdJQDtRav1pjc_Ptu5-149" target="LJCdJQDtRav1pjc_Ptu5-163" edge="1">
          <mxGeometry x="-0.359" y="-11" relative="1" as="geometry">
            <mxPoint as="offset" />
            <mxPoint x="2355" y="190" as="sourcePoint" />
            <mxPoint x="2410" y="210" as="targetPoint" />
          </mxGeometry>
        </mxCell>
        <mxCell id="LJCdJQDtRav1pjc_Ptu5-174" value="" style="whiteSpace=wrap;html=1;rounded=1;shadow=1;labelBackgroundColor=none;strokeWidth=1;fontFamily=Verdana;fontSize=12;align=center;" parent="1" vertex="1">
          <mxGeometry x="2780" y="200" width="40" height="60" as="geometry" />
        </mxCell>
        <mxCell id="LJCdJQDtRav1pjc_Ptu5-175" value="" style="whiteSpace=wrap;html=1;rounded=1;shadow=1;labelBackgroundColor=none;strokeWidth=1;fontFamily=Verdana;fontSize=12;align=center;" parent="1" vertex="1">
          <mxGeometry x="2705" y="280" width="40" height="60" as="geometry" />
        </mxCell>
        <mxCell id="LJCdJQDtRav1pjc_Ptu5-176" value="" style="whiteSpace=wrap;html=1;rounded=1;shadow=1;labelBackgroundColor=none;strokeWidth=1;fontFamily=Verdana;fontSize=12;align=center;" parent="1" vertex="1">
          <mxGeometry x="2755" y="280" width="40" height="60" as="geometry" />
        </mxCell>
        <mxCell id="LJCdJQDtRav1pjc_Ptu5-177" value="" style="rounded=0;html=1;labelBackgroundColor=none;startArrow=none;startFill=0;startSize=5;endArrow=none;endFill=0;endSize=5;jettySize=auto;orthogonalLoop=1;strokeWidth=1;fontFamily=Verdana;fontSize=12;exitX=0.5;exitY=1;exitDx=0;exitDy=0;entryX=0.5;entryY=0;entryDx=0;entryDy=0;" parent="1" source="LJCdJQDtRav1pjc_Ptu5-174" target="LJCdJQDtRav1pjc_Ptu5-176" edge="1">
          <mxGeometry x="-0.3002" y="13" relative="1" as="geometry">
            <mxPoint as="offset" />
          </mxGeometry>
        </mxCell>
        <mxCell id="LJCdJQDtRav1pjc_Ptu5-178" value="&lt;br&gt;" style="rounded=0;html=1;labelBackgroundColor=none;startArrow=none;startFill=0;startSize=5;endArrow=none;endFill=0;endSize=5;jettySize=auto;orthogonalLoop=1;strokeWidth=1;fontFamily=Verdana;fontSize=12;exitX=0.5;exitY=1;exitDx=0;exitDy=0;entryX=0.5;entryY=0;entryDx=0;entryDy=0;" parent="1" source="LJCdJQDtRav1pjc_Ptu5-174" target="LJCdJQDtRav1pjc_Ptu5-175" edge="1">
          <mxGeometry x="-0.359" y="-11" relative="1" as="geometry">
            <mxPoint as="offset" />
          </mxGeometry>
        </mxCell>
        <mxCell id="LJCdJQDtRav1pjc_Ptu5-179" value="" style="whiteSpace=wrap;html=1;rounded=1;shadow=1;labelBackgroundColor=none;strokeWidth=1;fontFamily=Verdana;fontSize=12;align=center;" parent="1" vertex="1">
          <mxGeometry x="2805" y="280" width="40" height="60" as="geometry" />
        </mxCell>
        <mxCell id="LJCdJQDtRav1pjc_Ptu5-180" value="" style="whiteSpace=wrap;html=1;rounded=1;shadow=1;labelBackgroundColor=none;strokeWidth=1;fontFamily=Verdana;fontSize=12;align=center;" parent="1" vertex="1">
          <mxGeometry x="2855" y="280" width="40" height="60" as="geometry" />
        </mxCell>
        <mxCell id="LJCdJQDtRav1pjc_Ptu5-181" value="" style="rounded=0;html=1;labelBackgroundColor=none;startArrow=none;startFill=0;startSize=5;endArrow=none;endFill=0;endSize=5;jettySize=auto;orthogonalLoop=1;strokeWidth=1;fontFamily=Verdana;fontSize=12;exitX=0.5;exitY=1;exitDx=0;exitDy=0;entryX=0.5;entryY=0;entryDx=0;entryDy=0;" parent="1" source="LJCdJQDtRav1pjc_Ptu5-174" target="LJCdJQDtRav1pjc_Ptu5-179" edge="1">
          <mxGeometry x="-0.3002" y="13" relative="1" as="geometry">
            <mxPoint as="offset" />
            <mxPoint x="2915" y="270" as="sourcePoint" />
            <mxPoint x="3005" y="290" as="targetPoint" />
          </mxGeometry>
        </mxCell>
        <mxCell id="LJCdJQDtRav1pjc_Ptu5-182" value="" style="rounded=0;html=1;labelBackgroundColor=none;startArrow=none;startFill=0;startSize=5;endArrow=none;endFill=0;endSize=5;jettySize=auto;orthogonalLoop=1;strokeWidth=1;fontFamily=Verdana;fontSize=12;exitX=0.5;exitY=1;exitDx=0;exitDy=0;entryX=0.5;entryY=0;entryDx=0;entryDy=0;" parent="1" source="LJCdJQDtRav1pjc_Ptu5-174" target="LJCdJQDtRav1pjc_Ptu5-180" edge="1">
          <mxGeometry x="-0.3002" y="13" relative="1" as="geometry">
            <mxPoint as="offset" />
            <mxPoint x="2915" y="270" as="sourcePoint" />
            <mxPoint x="3055" y="290" as="targetPoint" />
          </mxGeometry>
        </mxCell>
        <mxCell id="LJCdJQDtRav1pjc_Ptu5-183" value="" style="whiteSpace=wrap;html=1;rounded=1;shadow=1;labelBackgroundColor=none;strokeWidth=1;fontFamily=Verdana;fontSize=12;align=center;" parent="1" vertex="1">
          <mxGeometry x="2830" y="120" width="40" height="60" as="geometry" />
        </mxCell>
        <mxCell id="LJCdJQDtRav1pjc_Ptu5-184" value="" style="whiteSpace=wrap;html=1;rounded=1;shadow=1;labelBackgroundColor=none;strokeWidth=1;fontFamily=Verdana;fontSize=12;align=center;" parent="1" vertex="1">
          <mxGeometry x="2725" y="200" width="40" height="60" as="geometry" />
        </mxCell>
        <mxCell id="LJCdJQDtRav1pjc_Ptu5-186" value="&lt;br&gt;" style="rounded=0;html=1;labelBackgroundColor=none;startArrow=none;startFill=0;startSize=5;endArrow=none;endFill=0;endSize=5;jettySize=auto;orthogonalLoop=1;strokeWidth=1;fontFamily=Verdana;fontSize=12;exitX=0.5;exitY=1;exitDx=0;exitDy=0;entryX=0.5;entryY=0;entryDx=0;entryDy=0;" parent="1" target="LJCdJQDtRav1pjc_Ptu5-184" edge="1">
          <mxGeometry x="-0.359" y="-11" relative="1" as="geometry">
            <mxPoint as="offset" />
            <mxPoint x="2860" y="180" as="sourcePoint" />
            <mxPoint x="2790" y="200" as="targetPoint" />
          </mxGeometry>
        </mxCell>
        <mxCell id="LJCdJQDtRav1pjc_Ptu5-187" value="&lt;br&gt;" style="rounded=0;html=1;labelBackgroundColor=none;startArrow=none;startFill=0;startSize=5;endArrow=none;endFill=0;endSize=5;jettySize=auto;orthogonalLoop=1;strokeWidth=1;fontFamily=Verdana;fontSize=12;exitX=0.5;exitY=1;exitDx=0;exitDy=0;entryX=0.5;entryY=0;entryDx=0;entryDy=0;" parent="1" target="LJCdJQDtRav1pjc_Ptu5-130" edge="1">
          <mxGeometry x="-0.359" y="-11" relative="1" as="geometry">
            <mxPoint as="offset" />
            <mxPoint x="2860" y="180" as="sourcePoint" />
            <mxPoint x="2920" y="200" as="targetPoint" />
          </mxGeometry>
        </mxCell>
        <mxCell id="LJCdJQDtRav1pjc_Ptu5-188" value="&lt;br&gt;" style="rounded=0;html=1;labelBackgroundColor=none;startArrow=none;startFill=0;startSize=5;endArrow=none;endFill=0;endSize=5;jettySize=auto;orthogonalLoop=1;strokeWidth=1;fontFamily=Verdana;fontSize=12;exitX=0.5;exitY=1;exitDx=0;exitDy=0;entryX=0.5;entryY=0;entryDx=0;entryDy=0;" parent="1" target="LJCdJQDtRav1pjc_Ptu5-174" edge="1">
          <mxGeometry x="-0.359" y="-11" relative="1" as="geometry">
            <mxPoint as="offset" />
            <mxPoint x="2860" y="180" as="sourcePoint" />
            <mxPoint x="2910" y="199.9999999999999" as="targetPoint" />
          </mxGeometry>
        </mxCell>
        <mxCell id="LJCdJQDtRav1pjc_Ptu5-189" value="" style="whiteSpace=wrap;html=1;rounded=1;shadow=1;labelBackgroundColor=none;strokeWidth=1;fontFamily=Verdana;fontSize=12;align=center;" parent="1" vertex="1">
          <mxGeometry x="2915" y="200" width="40" height="60" as="geometry" />
        </mxCell>
        <mxCell id="LJCdJQDtRav1pjc_Ptu5-190" value="&lt;br&gt;" style="rounded=0;html=1;labelBackgroundColor=none;startArrow=none;startFill=0;startSize=5;endArrow=none;endFill=0;endSize=5;jettySize=auto;orthogonalLoop=1;strokeWidth=1;fontFamily=Verdana;fontSize=12;exitX=0.5;exitY=1;exitDx=0;exitDy=0;entryX=0.5;entryY=0;entryDx=0;entryDy=0;" parent="1" target="LJCdJQDtRav1pjc_Ptu5-189" edge="1">
          <mxGeometry x="-0.359" y="-11" relative="1" as="geometry">
            <mxPoint as="offset" />
            <mxPoint x="2860" y="180" as="sourcePoint" />
            <mxPoint x="2915" y="210" as="targetPoint" />
          </mxGeometry>
        </mxCell>
        <mxCell id="LJCdJQDtRav1pjc_Ptu5-191" value="" style="whiteSpace=wrap;html=1;rounded=1;shadow=1;labelBackgroundColor=none;strokeWidth=1;fontFamily=Verdana;fontSize=12;align=center;" parent="1" vertex="1">
          <mxGeometry x="3205" y="200" width="40" height="60" as="geometry" />
        </mxCell>
        <mxCell id="LJCdJQDtRav1pjc_Ptu5-192" value="" style="whiteSpace=wrap;html=1;rounded=1;shadow=1;labelBackgroundColor=none;strokeWidth=1;fontFamily=Verdana;fontSize=12;align=center;" parent="1" vertex="1">
          <mxGeometry x="3125" y="280" width="40" height="60" as="geometry" />
        </mxCell>
        <mxCell id="LJCdJQDtRav1pjc_Ptu5-193" value="" style="whiteSpace=wrap;html=1;rounded=1;shadow=1;labelBackgroundColor=none;strokeWidth=1;fontFamily=Verdana;fontSize=12;align=center;" parent="1" vertex="1">
          <mxGeometry x="3175" y="280" width="40" height="60" as="geometry" />
        </mxCell>
        <mxCell id="LJCdJQDtRav1pjc_Ptu5-194" value="" style="rounded=0;html=1;labelBackgroundColor=none;startArrow=none;startFill=0;startSize=5;endArrow=none;endFill=0;endSize=5;jettySize=auto;orthogonalLoop=1;strokeWidth=1;fontFamily=Verdana;fontSize=12;exitX=0.5;exitY=1;exitDx=0;exitDy=0;entryX=0.5;entryY=0;entryDx=0;entryDy=0;" parent="1" source="LJCdJQDtRav1pjc_Ptu5-191" target="LJCdJQDtRav1pjc_Ptu5-193" edge="1">
          <mxGeometry x="-0.3002" y="13" relative="1" as="geometry">
            <mxPoint as="offset" />
          </mxGeometry>
        </mxCell>
        <mxCell id="LJCdJQDtRav1pjc_Ptu5-195" value="&lt;br&gt;" style="rounded=0;html=1;labelBackgroundColor=none;startArrow=none;startFill=0;startSize=5;endArrow=none;endFill=0;endSize=5;jettySize=auto;orthogonalLoop=1;strokeWidth=1;fontFamily=Verdana;fontSize=12;exitX=0.5;exitY=1;exitDx=0;exitDy=0;entryX=0.5;entryY=0;entryDx=0;entryDy=0;" parent="1" source="LJCdJQDtRav1pjc_Ptu5-191" target="LJCdJQDtRav1pjc_Ptu5-192" edge="1">
          <mxGeometry x="-0.359" y="-11" relative="1" as="geometry">
            <mxPoint as="offset" />
          </mxGeometry>
        </mxCell>
        <mxCell id="LJCdJQDtRav1pjc_Ptu5-196" value="" style="whiteSpace=wrap;html=1;rounded=1;shadow=1;labelBackgroundColor=none;strokeWidth=1;fontFamily=Verdana;fontSize=12;align=center;" parent="1" vertex="1">
          <mxGeometry x="3225" y="280" width="40" height="60" as="geometry" />
        </mxCell>
        <mxCell id="LJCdJQDtRav1pjc_Ptu5-197" value="" style="whiteSpace=wrap;html=1;rounded=1;shadow=1;labelBackgroundColor=none;strokeWidth=1;fontFamily=Verdana;fontSize=12;align=center;" parent="1" vertex="1">
          <mxGeometry x="3275" y="280" width="40" height="60" as="geometry" />
        </mxCell>
        <mxCell id="LJCdJQDtRav1pjc_Ptu5-198" value="" style="rounded=0;html=1;labelBackgroundColor=none;startArrow=none;startFill=0;startSize=5;endArrow=none;endFill=0;endSize=5;jettySize=auto;orthogonalLoop=1;strokeWidth=1;fontFamily=Verdana;fontSize=12;exitX=0.5;exitY=1;exitDx=0;exitDy=0;entryX=0.5;entryY=0;entryDx=0;entryDy=0;" parent="1" source="LJCdJQDtRav1pjc_Ptu5-191" target="LJCdJQDtRav1pjc_Ptu5-196" edge="1">
          <mxGeometry x="-0.3002" y="13" relative="1" as="geometry">
            <mxPoint as="offset" />
            <mxPoint x="3230" y="270" as="sourcePoint" />
            <mxPoint x="3320" y="290" as="targetPoint" />
          </mxGeometry>
        </mxCell>
        <mxCell id="LJCdJQDtRav1pjc_Ptu5-199" value="" style="rounded=0;html=1;labelBackgroundColor=none;startArrow=none;startFill=0;startSize=5;endArrow=none;endFill=0;endSize=5;jettySize=auto;orthogonalLoop=1;strokeWidth=1;fontFamily=Verdana;fontSize=12;exitX=0.5;exitY=1;exitDx=0;exitDy=0;entryX=0.5;entryY=0;entryDx=0;entryDy=0;" parent="1" source="LJCdJQDtRav1pjc_Ptu5-191" target="LJCdJQDtRav1pjc_Ptu5-197" edge="1">
          <mxGeometry x="-0.3002" y="13" relative="1" as="geometry">
            <mxPoint as="offset" />
            <mxPoint x="3230" y="270" as="sourcePoint" />
            <mxPoint x="3370" y="290" as="targetPoint" />
          </mxGeometry>
        </mxCell>
        <mxCell id="LJCdJQDtRav1pjc_Ptu5-200" value="" style="whiteSpace=wrap;html=1;rounded=1;shadow=1;labelBackgroundColor=none;strokeWidth=1;fontFamily=Verdana;fontSize=12;align=center;" parent="1" vertex="1">
          <mxGeometry x="3240" y="130" width="40" height="60" as="geometry" />
        </mxCell>
        <mxCell id="LJCdJQDtRav1pjc_Ptu5-201" value="" style="whiteSpace=wrap;html=1;rounded=1;shadow=1;labelBackgroundColor=none;strokeWidth=1;fontFamily=Verdana;fontSize=12;align=center;" parent="1" vertex="1">
          <mxGeometry x="3335" y="200" width="40" height="60" as="geometry" />
        </mxCell>
        <mxCell id="LJCdJQDtRav1pjc_Ptu5-202" value="" style="whiteSpace=wrap;html=1;rounded=1;shadow=1;labelBackgroundColor=none;strokeWidth=1;fontFamily=Verdana;fontSize=12;align=center;" parent="1" vertex="1">
          <mxGeometry x="3385" y="200" width="40" height="60" as="geometry" />
        </mxCell>
        <mxCell id="LJCdJQDtRav1pjc_Ptu5-203" value="&lt;br&gt;" style="rounded=0;html=1;labelBackgroundColor=none;startArrow=none;startFill=0;startSize=5;endArrow=none;endFill=0;endSize=5;jettySize=auto;orthogonalLoop=1;strokeWidth=1;fontFamily=Verdana;fontSize=12;exitX=0.5;exitY=1;exitDx=0;exitDy=0;entryX=0.5;entryY=0;entryDx=0;entryDy=0;" parent="1" source="LJCdJQDtRav1pjc_Ptu5-200" target="LJCdJQDtRav1pjc_Ptu5-201" edge="1">
          <mxGeometry x="-0.359" y="-11" relative="1" as="geometry">
            <mxPoint as="offset" />
            <mxPoint x="3380" y="190" as="sourcePoint" />
            <mxPoint x="3190" y="210" as="targetPoint" />
          </mxGeometry>
        </mxCell>
        <mxCell id="LJCdJQDtRav1pjc_Ptu5-204" value="&lt;br&gt;" style="rounded=0;html=1;labelBackgroundColor=none;startArrow=none;startFill=0;startSize=5;endArrow=none;endFill=0;endSize=5;jettySize=auto;orthogonalLoop=1;strokeWidth=1;fontFamily=Verdana;fontSize=12;exitX=0.5;exitY=1;exitDx=0;exitDy=0;entryX=0.5;entryY=0;entryDx=0;entryDy=0;" parent="1" source="LJCdJQDtRav1pjc_Ptu5-200" target="LJCdJQDtRav1pjc_Ptu5-202" edge="1">
          <mxGeometry x="-0.359" y="-11" relative="1" as="geometry">
            <mxPoint as="offset" />
            <mxPoint x="3393" y="199" as="sourcePoint" />
            <mxPoint x="3230" y="220" as="targetPoint" />
          </mxGeometry>
        </mxCell>
        <mxCell id="LJCdJQDtRav1pjc_Ptu5-205" value="&lt;br&gt;" style="rounded=0;html=1;labelBackgroundColor=none;startArrow=none;startFill=0;startSize=5;endArrow=none;endFill=0;endSize=5;jettySize=auto;orthogonalLoop=1;strokeWidth=1;fontFamily=Verdana;fontSize=12;exitX=0.5;exitY=1;exitDx=0;exitDy=0;entryX=0.5;entryY=0;entryDx=0;entryDy=0;" parent="1" source="LJCdJQDtRav1pjc_Ptu5-200" target="LJCdJQDtRav1pjc_Ptu5-191" edge="1">
          <mxGeometry x="-0.359" y="-11" relative="1" as="geometry">
            <mxPoint as="offset" />
            <mxPoint x="3390" y="200" as="sourcePoint" />
            <mxPoint x="3310" y="209.9999999999999" as="targetPoint" />
          </mxGeometry>
        </mxCell>
        <mxCell id="LJCdJQDtRav1pjc_Ptu5-206" value="" style="whiteSpace=wrap;html=1;rounded=1;shadow=1;labelBackgroundColor=none;strokeWidth=1;fontFamily=Verdana;fontSize=12;align=center;" parent="1" vertex="1">
          <mxGeometry x="3435" y="200" width="40" height="60" as="geometry" />
        </mxCell>
        <mxCell id="LJCdJQDtRav1pjc_Ptu5-207" value="&lt;br&gt;" style="rounded=0;html=1;labelBackgroundColor=none;startArrow=none;startFill=0;startSize=5;endArrow=none;endFill=0;endSize=5;jettySize=auto;orthogonalLoop=1;strokeWidth=1;fontFamily=Verdana;fontSize=12;exitX=0.5;exitY=1;exitDx=0;exitDy=0;entryX=0.5;entryY=0;entryDx=0;entryDy=0;" parent="1" source="LJCdJQDtRav1pjc_Ptu5-200" target="LJCdJQDtRav1pjc_Ptu5-206" edge="1">
          <mxGeometry x="-0.359" y="-11" relative="1" as="geometry">
            <mxPoint as="offset" />
            <mxPoint x="3260" y="200" as="sourcePoint" />
            <mxPoint x="3315" y="220" as="targetPoint" />
          </mxGeometry>
        </mxCell>
        <mxCell id="2zENfmRePlbgEB2KkTiz-1" value="0" style="text;html=1;align=center;verticalAlign=middle;whiteSpace=wrap;rounded=0;fontSize=30;" vertex="1" parent="1">
          <mxGeometry x="3480" y="53.5" width="60" height="30" as="geometry" />
        </mxCell>
        <mxCell id="2zENfmRePlbgEB2KkTiz-2" value="1" style="text;html=1;align=center;verticalAlign=middle;whiteSpace=wrap;rounded=0;fontSize=30;" vertex="1" parent="1">
          <mxGeometry x="3480" y="145" width="60" height="30" as="geometry" />
        </mxCell>
        <mxCell id="2zENfmRePlbgEB2KkTiz-3" value="2" style="text;html=1;align=center;verticalAlign=middle;whiteSpace=wrap;rounded=0;fontSize=30;" vertex="1" parent="1">
          <mxGeometry x="3480" y="215" width="60" height="30" as="geometry" />
        </mxCell>
        <mxCell id="2zENfmRePlbgEB2KkTiz-4" value="3" style="text;html=1;align=center;verticalAlign=middle;whiteSpace=wrap;rounded=0;fontSize=30;" vertex="1" parent="1">
          <mxGeometry x="3480" y="295" width="60" height="30" as="geometry" />
        </mxCell>
      </root>
    </mxGraphModel>
  </diagram>
</mxfile>
